<?xml version="1.0" encoding="utf-8"?>
<!-- Generator: Adobe Illustrator 16.0.0, SVG Export Plug-In . SVG Version: 6.00 Build 0)  -->
<!DOCTYPE svg PUBLIC "-//W3C//DTD SVG 1.1//EN" "http://www.w3.org/Graphics/SVG/1.1/DTD/svg11.dtd" [
	<!ENTITY ns_extend "http://ns.adobe.com/Extensibility/1.0/">
	<!ENTITY ns_ai "http://ns.adobe.com/AdobeIllustrator/10.0/">
	<!ENTITY ns_graphs "http://ns.adobe.com/Graphs/1.0/">
	<!ENTITY ns_vars "http://ns.adobe.com/Variables/1.0/">
	<!ENTITY ns_imrep "http://ns.adobe.com/ImageReplacement/1.0/">
	<!ENTITY ns_sfw "http://ns.adobe.com/SaveForWeb/1.0/">
	<!ENTITY ns_custom "http://ns.adobe.com/GenericCustomNamespace/1.0/">
	<!ENTITY ns_adobe_xpath "http://ns.adobe.com/XPath/1.0/">
]>
<svg version="1.1" id="Layer_1" xmlns:x="&ns_extend;" xmlns:i="&ns_ai;" xmlns:graph="&ns_graphs;"
	 xmlns="http://www.w3.org/2000/svg" xmlns:xlink="http://www.w3.org/1999/xlink" x="0px" y="0px" width="64px" height="64px"
	 viewBox="0 0 64 64" style="enable-background:new 0 0 64 64;" xml:space="preserve">
<metadata>
	<sfw  xmlns="&ns_sfw;">
		<slices></slices>
		<sliceSourceBounds  width="376.082" height="64" bottomLeftOrigin="true" y="-64" x="0"></sliceSourceBounds>
		<optimizationSettings></optimizationSettings>
	</sfw>
</metadata>
<g>
	<circle style="fill:#152EE8;" cx="32" cy="32" r="32"/>
	<g>
		<g>
			<rect x="22" y="19" style="fill:#FFFFFF;" width="7" height="27"/>
			<g>
				<path style="fill:#FFFFFF;" d="M29.834,45.87c-0.964,0-6.968,0.339-6.968-0.284c0-2.768,0-5.534,0-8.302
					c0-6.428,0-12.856,0-19.284c-0.577,0.333-1.155,0.667-1.732,1c0.964,0,6.968-0.339,6.968,0.285c0,2.767,0,5.534,0,8.301
					c0,6.428,0,12.856,0,19.284C28.102,46.55,29.834,46.217,29.834,45.87c0-6.272,0-12.545,0-18.818c0-2.882,0-5.764,0-8.646
					c0-0.812-1.137-0.406-1.807-0.406c-1.721,0-3.44,0-5.161,0c-0.181,0-1.732,0.881-1.732,1c0,6.272,0,12.545,0,18.817
					c0,2.883,0,5.765,0,8.646c0,0.812,1.137,0.406,1.807,0.406c1.721,0,3.44,0,5.161,0C28.687,46.87,29.265,45.87,29.834,45.87z"/>
			</g>
		</g>
		<g>
			<rect x="36" y="19" style="fill:#FFFFFF;" width="7" height="27"/>
			<g>
				<path style="fill:#FFFFFF;" d="M43.769,45.87c-0.964,0-6.968,0.339-6.968-0.284c0-2.768,0-5.534,0-8.302
					c0-6.428,0-12.856,0-19.284c-0.577,0.333-1.155,0.667-1.732,1c0.964,0,6.968-0.339,6.968,0.285c0,2.767,0,5.534,0,8.301
					c0,6.428,0,12.856,0,19.284C42.036,46.55,43.769,46.217,43.769,45.87c0-6.272,0-12.545,0-18.818c0-2.882,0-5.764,0-8.646
					c0-0.812-1.137-0.406-1.807-0.406c-1.721,0-3.44,0-5.161,0c-0.181,0-1.732,0.881-1.732,1c0,6.272,0,12.545,0,18.817
					c0,2.883,0,5.765,0,8.646c0,0.812,1.137,0.406,1.807,0.406c1.721,0,3.44,0,5.161,0C42.621,46.87,43.199,45.87,43.769,45.87z"/>
			</g>
		</g>
	</g>
</g>
</svg>
