<?xml version="1.0" encoding="utf-8"?>
<!-- Generator: Adobe Illustrator 16.0.0, SVG Export Plug-In . SVG Version: 6.00 Build 0)  -->
<!DOCTYPE svg PUBLIC "-//W3C//DTD SVG 1.1//EN" "http://www.w3.org/Graphics/SVG/1.1/DTD/svg11.dtd" [
	<!ENTITY ns_extend "http://ns.adobe.com/Extensibility/1.0/">
	<!ENTITY ns_ai "http://ns.adobe.com/AdobeIllustrator/10.0/">
	<!ENTITY ns_graphs "http://ns.adobe.com/Graphs/1.0/">
	<!ENTITY ns_vars "http://ns.adobe.com/Variables/1.0/">
	<!ENTITY ns_imrep "http://ns.adobe.com/ImageReplacement/1.0/">
	<!ENTITY ns_sfw "http://ns.adobe.com/SaveForWeb/1.0/">
	<!ENTITY ns_custom "http://ns.adobe.com/GenericCustomNamespace/1.0/">
	<!ENTITY ns_adobe_xpath "http://ns.adobe.com/XPath/1.0/">
]>
<svg version="1.1" id="Layer_1" xmlns:x="&ns_extend;" xmlns:i="&ns_ai;" xmlns:graph="&ns_graphs;"
	 xmlns="http://www.w3.org/2000/svg" xmlns:xlink="http://www.w3.org/1999/xlink" x="0px" y="0px" width="60px" height="60px"
	 viewBox="0 0 60 60" style="enable-background:new 0 0 60 60;" xml:space="preserve">
<metadata>
	<sfw  xmlns="&ns_sfw;">
		<slices></slices>
		<sliceSourceBounds  width="376.082" height="64" bottomLeftOrigin="true" y="-64" x="0"></sliceSourceBounds>
		<optimizationSettings></optimizationSettings>
	</sfw>
</metadata>
<g>
	<polygon style="fill:#FFFFFF;" points="22,15.5 22,44.5 42.938,27.329 	"/>
	<g>
		<path style="fill:#FFFFFF;" d="M20.082,15.888c0,9.667,0,19.333,0,29c0-0.206,2.609-0.54,2.898-0.777
			c6.931-5.684,13.861-11.368,20.793-17.052c-0.115,0.094-8.184-4.824-9.054-5.315c-3.913-2.211-7.826-4.421-11.739-6.632
			C22.346,14.753,20.689,16.231,20.082,15.888c3.631,2.051,7.263,4.103,10.894,6.154c0.949,0.536,9.737,5.926,9.899,5.793
			c-6.931,5.685-13.861,11.368-20.793,17.053c0.966-0.259,1.933-0.519,2.898-0.777c0-9.666,0-19.333,0-29
			C22.98,15.349,20.082,15.607,20.082,15.888z"/>
	</g>
</g>
</svg>
