<?xml version="1.0" encoding="utf-8"?>
<!-- Generator: Adobe Illustrator 16.0.0, SVG Export Plug-In . SVG Version: 6.00 Build 0)  -->
<!DOCTYPE svg PUBLIC "-//W3C//DTD SVG 1.1//EN" "http://www.w3.org/Graphics/SVG/1.1/DTD/svg11.dtd" [
	<!ENTITY ns_extend "http://ns.adobe.com/Extensibility/1.0/">
	<!ENTITY ns_ai "http://ns.adobe.com/AdobeIllustrator/10.0/">
	<!ENTITY ns_graphs "http://ns.adobe.com/Graphs/1.0/">
	<!ENTITY ns_vars "http://ns.adobe.com/Variables/1.0/">
	<!ENTITY ns_imrep "http://ns.adobe.com/ImageReplacement/1.0/">
	<!ENTITY ns_sfw "http://ns.adobe.com/SaveForWeb/1.0/">
	<!ENTITY ns_custom "http://ns.adobe.com/GenericCustomNamespace/1.0/">
	<!ENTITY ns_adobe_xpath "http://ns.adobe.com/XPath/1.0/">
]>
<svg version="1.1" id="Layer_1" xmlns:x="&ns_extend;" xmlns:i="&ns_ai;" xmlns:graph="&ns_graphs;"
	 xmlns="http://www.w3.org/2000/svg" xmlns:xlink="http://www.w3.org/1999/xlink" x="0px" y="0px" width="60px" height="60px"
	 viewBox="0 0 60 60" style="enable-background:new 0 0 60 60;" xml:space="preserve">
<metadata>
	<sfw  xmlns="&ns_sfw;">
		<slices></slices>
		<sliceSourceBounds  width="376.082" height="64" bottomLeftOrigin="true" y="-64" x="0"></sliceSourceBounds>
		<optimizationSettings></optimizationSettings>
	</sfw>
</metadata>
<g>
	<g>
		<path style="fill-rule:evenodd;clip-rule:evenodd;fill:#FFFFFF;" d="M26.812,29.86c0,2.797-0.002,5.593,0.004,8.392
			c0,0.389-0.115,0.703-0.473,0.883c-0.35,0.18-0.691,0.121-1-0.111c-2.158-1.619-4.314-3.242-6.473-4.861
			c-0.287-0.215-0.422-0.51-0.422-0.857c-0.006-2.305-0.006-4.609-0.004-6.914c0-0.379,0.164-0.674,0.475-0.905
			c2.119-1.591,4.234-3.186,6.348-4.782c0.338-0.256,0.695-0.372,1.092-0.162c0.385,0.205,0.467,0.549,0.465,0.964
			c-0.01,2.784-0.004,5.569-0.004,8.354C26.816,29.86,26.814,29.86,26.812,29.86z"/>
	</g>
	<g>
		<path style="fill-rule:evenodd;clip-rule:evenodd;fill:#FFFFFF;" d="M46.082,30.017C46,34.865,44.666,39.324,42.049,43.4
			c-0.459,0.713-1.264,0.92-1.947,0.508c-0.66-0.396-0.84-1.199-0.457-1.932c0.684-1.299,1.428-2.574,2.014-3.916
			c0.82-1.873,1.26-3.859,1.455-5.899c0.264-2.766,0.031-5.484-0.742-8.153c-0.541-1.87-1.316-3.639-2.34-5.296
			c-0.166-0.271-0.336-0.543-0.473-0.831c-0.311-0.652-0.092-1.39,0.508-1.774c0.592-0.379,1.389-0.279,1.818,0.296
			c0.387,0.52,0.723,1.082,1.037,1.649c1.471,2.652,2.443,5.479,2.859,8.485C45.939,27.689,45.986,28.856,46.082,30.017z"/>
	</g>
	<g>
		<path style="fill-rule:evenodd;clip-rule:evenodd;fill:#FFFFFF;" d="M40.057,30.026c0.025,3.859-1.07,7.388-3.189,10.605
			c-0.479,0.727-1.297,0.922-1.98,0.484c-0.652-0.418-0.84-1.26-0.379-1.973c1.047-1.617,1.855-3.34,2.312-5.215
			c0.467-1.926,0.592-3.871,0.355-5.842c-0.307-2.542-1.18-4.867-2.564-7.012c-0.471-0.728-0.459-1.388-0.01-1.899
			c0.621-0.705,1.713-0.642,2.24,0.185c0.523,0.826,1.02,1.678,1.447,2.557c1.014,2.083,1.561,4.301,1.762,6.603
			C40.092,29.017,40.057,29.525,40.057,30.026z"/>
	</g>
	<g>
		<path style="fill-rule:evenodd;clip-rule:evenodd;fill:#FFFFFF;" d="M34.15,30.331c-0.018,2.501-0.85,5.07-2.482,7.38
			c-0.471,0.666-1.295,0.832-1.943,0.408c-0.65-0.43-0.824-1.279-0.359-1.975c0.707-1.057,1.291-2.166,1.609-3.404
			c0.768-2.969,0.334-5.752-1.289-8.352c-0.168-0.271-0.367-0.531-0.479-0.824c-0.24-0.638,0.025-1.322,0.592-1.656
			c0.615-0.36,1.348-0.27,1.783,0.312c0.424,0.567,0.801,1.177,1.125,1.805C33.676,25.896,34.145,27.897,34.15,30.331z"/>
	</g>
	<g>
		<path style="fill-rule:evenodd;clip-rule:evenodd;fill:#FFFFFF;" d="M13.918,29.911c0.045-1.149,0.074-2.19,0.131-3.232
			c0.031-0.594,0.16-0.697,0.744-0.699c0.43-0.001,0.859-0.005,1.289,0.001c0.5,0.007,0.641,0.174,0.633,0.68
			c-0.027,1.814-0.049,3.629-0.062,5.444c0,0.343,0.049,0.685,0.059,1.029c0.012,0.381-0.143,0.547-0.52,0.553
			c-0.527,0.012-1.055,0-1.582,0.006c-0.346,0.004-0.523-0.158-0.541-0.504C14.018,32.06,13.965,30.933,13.918,29.911z"/>
	</g>
</g>
</svg>
