<?xml version="1.0" encoding="utf-8"?>
<!-- Generator: Adobe Illustrator 16.0.0, SVG Export Plug-In . SVG Version: 6.00 Build 0)  -->
<!DOCTYPE svg PUBLIC "-//W3C//DTD SVG 1.1//EN" "http://www.w3.org/Graphics/SVG/1.1/DTD/svg11.dtd">
<svg version="1.1" id="Layer_1" xmlns="http://www.w3.org/2000/svg" xmlns:xlink="http://www.w3.org/1999/xlink" x="0px" y="0px"
	 width="60px" height="60px" viewBox="0 0 60 60" enable-background="new 0 0 60 60" xml:space="preserve">
<g>
	<g>
		<g>
			<rect x="17.186" y="13.511" fill="#3853A1" width="7.439" height="34.01"/>
			<g>
				<path fill="#3853A1" d="M25.744,46.073c-2.479,0-4.96,0-7.439,0c0.318,0.246,0.637,0.491,0.955,0.737
					c0-11.337,0-22.673,0-34.011c-0.71,0.365-1.42,0.731-2.132,1.096c2.479,0,4.961,0,7.44,0c-0.318-0.246-0.638-0.491-0.955-0.736
					c0,11.337,0,22.674,0,34.01c0,1.354,3.086,0.714,3.086-0.358c0-11.337,0-22.673,0-34.011c0-0.531-0.462-0.736-0.955-0.736
					c-2.479,0-4.96,0-7.439,0c-0.549,0-2.132,0.282-2.132,1.096c0,11.337,0,22.674,0,34.01c0,0.531,0.463,0.735,0.955,0.735
					c2.479,0,4.961,0,7.44,0C25.776,47.904,27.828,46.073,25.744,46.073z"/>
			</g>
		</g>
		<g>
			<rect x="34.001" y="13.511" fill="#3853A1" width="7.441" height="34.01"/>
			<g>
				<path fill="#3853A1" d="M42.979,46.392c-1.736,0-3.471,0-5.205,0c-0.686,0-1.375,0-2.061,0c0.51,0,0.359,0.165,0.359-0.482
					c0-3.699,0-7.399,0-11.1c0-7.414,0-14.828,0-22.242c-0.85,0.337-1.698,0.675-2.545,1.012c1.734,0,3.469,0,5.203,0
					c0.686,0,1.375,0,2.062,0c-0.512,0-0.361-0.166-0.361,0.483c0,3.699,0,7.398,0,11.098c0,7.414,0,14.829,0,22.244
					c0,0.433,3.08,0.01,3.08-0.827c0-11.336,0-22.673,0-34.01c0-0.18-0.459-0.186-0.533-0.186c-2.48,0-4.961,0-7.439,0
					c-0.507,0-2.548,0.253-2.548,1.012c0,11.337,0,22.672,0,34.011c0,0.18,0.459,0.185,0.533,0.185c2.481,0,4.962,0,7.44,0
					C41.575,47.588,44.462,46.392,42.979,46.392z"/>
			</g>
		</g>
	</g>
	<g>
		<g>
			<path fill="#3853A1" d="M55.329,30.34c-0.388,15.348-13.027,27.537-28.674,25.548C13.614,54.231,4.676,42.159,4.357,29.564
				C3.967,14.151,18.02,2.107,33.031,4.014C46.072,5.671,55.011,17.745,55.329,30.34c0.019,0.707,2.923,0.195,2.898-0.776
				C57.811,13.088,43.918,1.221,27.685,2.456C13.039,3.569,1.826,15.842,1.459,30.34C1.042,46.86,16.382,58.636,32.001,57.448
				c14.645-1.114,25.859-13.387,26.227-27.884C58.244,28.896,55.354,29.353,55.329,30.34z"/>
		</g>
	</g>
</g>
</svg>
