<?xml version="1.0" encoding="utf-8"?>
<!-- Generator: Adobe Illustrator 16.0.0, SVG Export Plug-In . SVG Version: 6.00 Build 0)  -->
<!DOCTYPE svg PUBLIC "-//W3C//DTD SVG 1.1//EN" "http://www.w3.org/Graphics/SVG/1.1/DTD/svg11.dtd">
<svg version="1.1" id="Layer_1" xmlns="http://www.w3.org/2000/svg" xmlns:xlink="http://www.w3.org/1999/xlink" x="0px" y="0px"
	 width="60px" height="60px" viewBox="0 0 60 60" enable-background="new 0 0 60 60" xml:space="preserve">
<g>
	<g>
		<g>
			<path fill="#3853A1" d="M55.329,30.34c-0.388,15.348-13.027,27.537-28.674,25.548C13.614,54.231,4.676,42.159,4.357,29.564
				C3.967,14.151,18.02,2.107,33.031,4.014C46.072,5.671,55.011,17.745,55.329,30.34c0.019,0.707,2.923,0.195,2.898-0.776
				C57.811,13.088,43.918,1.221,27.685,2.456C13.039,3.569,1.826,15.842,1.459,30.34C1.042,46.86,16.382,58.636,32.001,57.448
				c14.645-1.114,25.859-13.387,26.227-27.884C58.244,28.896,55.354,29.353,55.329,30.34z"/>
		</g>
	</g>
	<g>
		<polygon fill="#3853A1" points="20.446,12.844 20.446,47.144 43.383,28.231 		"/>
		<g>
			<path fill="#3853A1" d="M19.175,13.274c0,11.432,0,22.867,0,34.298c0,0.999,3.351-0.17,3.721-0.477
				c7.645-6.303,15.292-12.607,22.937-18.911c0.173-0.142,0.251-0.39,0.032-0.537c-7.644-5.129-15.29-10.259-22.934-15.388
				c-0.934-0.626-4.463,0.611-3.634,1.168c3.823,2.564,7.646,5.129,11.468,7.692c2.751,1.847,5.503,3.693,8.255,5.539
				c0.779,0.522,1.557,1.044,2.334,1.566c0.978,0.655,0.633,0.283,0.719,0.211c-7.578,6.252-15.159,12.5-22.74,18.751
				c1.24-0.157,2.482-0.316,3.721-0.475c0-11.434,0-22.865,0-34.298C23.057,11.662,19.175,12.195,19.175,13.274z"/>
		</g>
	</g>
</g>
</svg>
