<?xml version="1.0" encoding="utf-8"?>
<!-- Generator: Adobe Illustrator 16.0.0, SVG Export Plug-In . SVG Version: 6.00 Build 0)  -->
<!DOCTYPE svg PUBLIC "-//W3C//DTD SVG 1.1//EN" "http://www.w3.org/Graphics/SVG/1.1/DTD/svg11.dtd">
<svg version="1.1" id="Layer_1" xmlns="http://www.w3.org/2000/svg" xmlns:xlink="http://www.w3.org/1999/xlink" x="0px" y="0px"
	 width="60px" height="60px" viewBox="0 0 60 60" enable-background="new 0 0 60 60" xml:space="preserve">
<g>
	<polygon fill="#FFFFFF" points="16.233,12.991 16.233,47.085 39.236,28.287 	"/>
	<g>
		<path fill="#FFFFFF" d="M14.959,13.418c0,11.364,0,22.729,0,34.094c0,0.993,3.36-0.169,3.731-0.473
			c7.668-6.267,15.336-12.531,23.004-18.798c0.173-0.142,0.253-0.388,0.032-0.534c-7.665-5.099-15.334-10.198-23-15.296
			c-0.937-0.623-4.476,0.608-3.644,1.162c3.835,2.549,7.669,5.098,11.501,7.647c2.76,1.834,5.52,3.67,8.281,5.506
			c0.779,0.519,1.561,1.038,2.341,1.557c0.979,0.651,0.632,0.281,0.721,0.21c-7.602,6.213-15.204,12.427-22.807,18.641
			c1.243-0.158,2.489-0.315,3.731-0.474c0-11.364,0-22.729,0-34.093C18.852,11.815,14.959,12.345,14.959,13.418z"/>
	</g>
</g>
</svg>
